<svg width="130" height="130" viewBox="0 0 130 130" fill="none" xmlns="http://www.w3.org/2000/svg">
<path d="M112 31H117C117.667 31 119 31.6 119 34C119 36.4 119 44.3333 119 48" stroke="#4F4841" stroke-width="2"/>
<path d="M112 28.9985C112 21.9989 98 22 98 28.9985V94.9986C99 99.3319 102 105.999 105 105.999C108.578 105.999 111 97.9986 112 94.9986V28.9985Z" stroke="#4F4841" stroke-width="2"/>
<path d="M105 92V98" stroke="#4F4841" stroke-width="2"/>
<path d="M103 29H107" stroke="#4F4841" stroke-width="2"/>
<path d="M51 73H83" stroke="#4F4841" stroke-width="2"/>
<path d="M19 79H29" stroke="#4F4841" stroke-width="2"/>
<path d="M35 79H69" stroke="#4F4841" stroke-width="2"/>
<path d="M75 79H83" stroke="#4F4841" stroke-width="2"/>
<path d="M19 86H59" stroke="#4F4841" stroke-width="2"/>
<path d="M55 99H81" stroke="#4F4841" stroke-width="2"/>
<path d="M19 59H83" stroke="#4F4841" stroke-width="2"/>
<path d="M19 66H65" stroke="#4F4841" stroke-width="2"/>
<path d="M71 66H83" stroke="#4F4841" stroke-width="2"/>
<path d="M19 73H45" stroke="#4F4841" stroke-width="2"/>
<path d="M36 26H67" stroke="#4F4841" stroke-width="2"/>
<path d="M43 33H60" stroke="#4F4841" stroke-width="2"/>
<path d="M61 43H83" stroke="#4F4841" stroke-width="2"/>
<path d="M26 53H37" stroke="#4F4841" stroke-width="2"/>
<path d="M43 53H83" stroke="#4F4841" stroke-width="2"/>
<path d="M12 114V16H91V114H12Z" stroke="#4F4841" stroke-width="2"/>
</svg>
