<svg width="130" height="130" viewBox="0 0 130 130" fill="none" xmlns="http://www.w3.org/2000/svg">
<path d="M12 95.1545H24.5182M12 95.1545V103.5H24.5182V95.1545M12 95.1545V57.6C12 55.8345 13.1345 52.3882 17.5636 52.0614M117.014 95.1545V103.5H103.8V95.1545M117.014 95.1545H103.8M117.014 95.1545C117.014 84.4909 117.014 62.0509 117.014 57.6C117.014 53.1491 113.305 52.0364 111.45 52.0364C111.567 52.0364 111.46 52.0364 110.755 52.0364M103.8 95.1545H24.5182M110.755 52.0364C110.061 52.0364 108.789 52.0364 106.582 52.0364C102.131 52.0364 101.018 55.7455 101.018 57.6V68.7273C67.6364 62.6073 37.9636 66.1773 27.3 68.7273C27.3 66.8727 27.3 62.0509 27.3 57.6C27.3 53.1491 24.0545 52.0364 22.4318 52.0364C23.1273 52.0364 23.2664 52.0364 18.2591 52.0364C18.0187 52.0364 17.787 52.0449 17.5636 52.0614M110.755 52.0364V34.65C110.755 32.1 108.946 27 101.714 27C94.4809 27 47.7 27 25.2136 27C22.6636 27 17.5636 28.53 17.5636 34.65C17.5636 40.77 17.5636 48.8076 17.5636 52.0614" stroke="#4F4841" stroke-width="2"/>
</svg>
