<svg width="130" height="130" viewBox="0 0 130 130" fill="none" xmlns="http://www.w3.org/2000/svg">
<path d="M56.3412 81.3548V110.216L64.0376 93.8615L71.734 110.216V81.3548C71.734 70.7723 83.2787 54.0967 88.0889 45.7589C82.958 49.6071 71.734 57.6884 67.8858 59.2276C64.0376 60.7669 61.1515 59.869 60.1894 59.2276L39.9863 45.7589C53.0702 65.7696 56.3412 77.8273 56.3412 81.3548Z" stroke="#4F4841" stroke-width="2"/>
<path d="M43.9009 103.901C35.1495 99.1542 28.2542 91.5954 24.3295 82.4459C20.4047 73.2963 19.6798 63.0907 22.2718 53.4783C24.8638 43.8659 30.6213 35.4082 38.6138 29.4722C46.6064 23.5362 56.367 20.4686 66.3184 20.7652C76.2697 21.0618 85.8303 24.7052 93.4552 31.1067C101.08 37.5082 106.324 46.2937 108.339 56.0434C110.353 65.7931 109.022 75.9375 104.559 84.837C100.097 93.7365 92.7635 100.871 83.745 105.088" stroke="#4F4841" stroke-width="2"/>
<circle cx="64.0377" cy="42.8729" r="9.58257" stroke="#4F4841" stroke-width="2"/>
<circle cx="24.5943" cy="97.7098" r="3.84821" fill="#4F4841"/>
<circle cx="14.1256" cy="70.7723" r="3.84821" fill="#4F4841"/>
<circle cx="17.897" cy="43.8348" r="3.84821" fill="#4F4841"/>
<circle cx="36.1392" cy="20.7457" r="3.84821" fill="#4F4841"/>
<circle cx="65.0005" cy="13.9732" r="3.84821" fill="#4F4841"/>
<circle cx="91.938" cy="20.7457" r="3.84821" fill="#4F4841"/>
<circle cx="111.178" cy="43.8349" r="3.84821" fill="#4F4841"/>
<circle cx="114.848" cy="70.8482" r="3.84821" fill="#4F4841"/>
<circle cx="103.483" cy="97.7098" r="3.84821" fill="#4F4841"/>
</svg>
