<svg width="130" height="130" viewBox="0 0 130 130" fill="none" xmlns="http://www.w3.org/2000/svg">
<path d="M44.459 50.3064L62.24 66.8612L83.6999 33.1385" stroke="#4F4841" stroke-width="2"/>
<path d="M42.0073 78.5109L26.0657 110.394L44.4599 109.168L53.6569 122.044L64.005 99.3577M70.174 85.8686L64.005 99.3577M64.005 99.3577L73.8905 122.044L84.3139 109.168L101.482 110.394L87.3796 78.5109M95.3504 77.8978L94.7372 65.0219L105.774 58.2774L99.0292 47.854L107 36.2044L95.3504 31.2993L94.7372 18.4234H83.0876L75.1168 8L64.0803 13.5182L53.0438 8L45.6861 17.8102H34.0365L35.2628 30.6861L23 34.9781L29.7445 47.854L23 61.3431L35.2628 66.8613L34.0365 78.5109H46.9124L55.4963 90.1606L64.005 82.8029L76.3431 88.9343L83.0876 77.8978H95.3504Z" stroke="#4F4841" stroke-width="2"/>
</svg>
